<svg xmlns="http://www.w3.org/2000/svg" width="24" height="24" viewBox="0 0 24 24"><g id="email" transform="translate(-8 -8)"><path id="Caminho_5" fill="#9ca4b1" d="M13.714,8A5.722,5.722,0,0,0,8,13.714V26.286A5.722,5.722,0,0,0,13.714,32H26.286A5.722,5.722,0,0,0,32,26.286V13.714A5.722,5.722,0,0,0,26.286,8Zm0,1.143H26.286a4.562,4.562,0,0,1,4.571,4.571V26.286a4.562,4.562,0,0,1-4.571,4.571H13.714a4.562,4.562,0,0,1-4.571-4.571V13.714A4.562,4.562,0,0,1,13.714,9.143Zm-.571,5.143A1.723,1.723,0,0,0,11.429,16v8a1.723,1.723,0,0,0,1.714,1.714H26.857A1.723,1.723,0,0,0,28.571,24V16a1.723,1.723,0,0,0-1.714-1.714Zm.237,1.143h13.24L21.53,20.51a2.163,2.163,0,0,1-3.07,0Zm14.049.807v7.529L23.658,20Zm-14.857,0L16.335,20l-3.763,3.763Zm10.279,4.57,3.77,3.765H13.379l3.763-3.763.509.509a3.323,3.323,0,0,0,4.685,0Zm0,0" data-name="Caminho 5"/></g></svg>
