<svg xmlns="http://www.w3.org/2000/svg" width="24" height="24" viewBox="0 0 24 24"><g id="facebook" transform="translate(-6 -6)"><path id="Caminho_1" fill="#9ca4b1" d="M18,6a12.013,12.013,0,0,0-1.793,23.89l.626.095V20.514H14V18.591h2.835V16.038a4.531,4.531,0,0,1,1-3.258,3.716,3.716,0,0,1,2.827-.977,11.813,11.813,0,0,1,1.8.109v1.574H21.13a1.958,1.958,0,0,0-1.7.987,3.845,3.845,0,0,0-.423,1.923V18.59h3.34l-.3,1.923H19.006V30l.619-.084A12.014,12.014,0,0,0,18,6Zm0,1.093a10.9,10.9,0,0,1,2.1,21.6V21.606h2.887l.634-4.108H20.1V16.4a2.964,2.964,0,0,1,.278-1.38.734.734,0,0,1,.755-.437h2.426V10.922l-.473-.064a16.53,16.53,0,0,0-2.422-.148,4.834,4.834,0,0,0-3.614,1.312,5.609,5.609,0,0,0-1.305,4.015V17.5H12.908v4.108h2.835v7.05A10.9,10.9,0,0,1,18,7.093Zm0,0" data-name="Caminho 1" transform="translate(0)"/></g></svg>
