<svg xmlns="http://www.w3.org/2000/svg" width="24" height="24" viewBox="0 0 24 24"><g id="github" transform="translate(-4 -4)"><path id="Caminho_3" fill="#9ca4b1" d="M16,4A12,12,0,1,0,28,16,12.009,12.009,0,0,0,16,4Zm0,1.043A10.95,10.95,0,0,1,26.957,16c0,.038,0,.074,0,.111-.333-.031-.719-.06-1.21-.077-.693-.024-1.567-.017-2.558.032a5.643,5.643,0,0,0,.063-.782,4.459,4.459,0,0,0-.811-2.7,7.41,7.41,0,0,0,.318-1.655,2.536,2.536,0,0,0-.608-2.094L22,8.7h-.206a4.62,4.62,0,0,0-2.944,1.051A7.847,7.847,0,0,0,16,9.217a8.243,8.243,0,0,0-2.9.531A4.623,4.623,0,0,0,10.157,8.7h-.2l-.151.14a2.5,2.5,0,0,0-.59,2.051,7.942,7.942,0,0,0,.3,1.695,4.957,4.957,0,0,0-.868,2.688,5.515,5.515,0,0,0,.061.784c-.943-.044-1.782-.052-2.449-.029-.49.017-.876.046-1.21.077,0-.034,0-.067,0-.1A10.95,10.95,0,0,1,16,5.043ZM10.468,9.807a4.033,4.033,0,0,1,2.211.9l.245.216.3-.123A7.22,7.22,0,0,1,16,10.261a6.784,6.784,0,0,1,2.713.53l.306.135.25-.222a4.037,4.037,0,0,1,2.213-.9,1.772,1.772,0,0,1,.232,1.062A7.412,7.412,0,0,1,21.4,12.5l-.078.252.156.213a3.463,3.463,0,0,1,.735,2.271v.029a3.713,3.713,0,0,1-1.467,3.116,7.778,7.778,0,0,1-4.793,1.267,7.781,7.781,0,0,1-4.794-1.267,3.712,3.712,0,0,1-1.466-3.116,3.994,3.994,0,0,1,.786-2.3l.153-.208-.073-.248a7.809,7.809,0,0,1-.3-1.678A1.814,1.814,0,0,1,10.468,9.807ZM7.592,16.533c.369.005.792.024,1.215.046a4.985,4.985,0,0,0,.143.479,23.85,23.85,0,0,0-3.812.359c-.034-.261-.06-.524-.075-.791A23.33,23.33,0,0,1,7.592,16.533Zm16.816.008a23.3,23.3,0,0,1,2.529.093c-.015.263-.042.522-.074.78a24.142,24.142,0,0,0-3.92-.353,4.889,4.889,0,0,0,.141-.47C23.55,16.566,24.005,16.546,24.408,16.541ZM9.172,17.575a4.716,4.716,0,0,0,1.344,1.636A7.127,7.127,0,0,0,13.64,20.5a4.053,4.053,0,0,0-.453.558l-.032-.027a2.069,2.069,0,0,1-.651.163c-.391.035-.875.024-1.3.024-.639,0-.92-.3-1.371-.852a3.721,3.721,0,0,0-.848-.814,2.117,2.117,0,0,0-.878-.414l-.043-.007H8.017a.811.811,0,0,0-.7.269.667.667,0,0,0-.137.555.659.659,0,0,0,.285.392c.713.476.839,1.416,1.286,2.253a2.418,2.418,0,0,0,2.239,1.226h1.356v2.506a10.958,10.958,0,0,1-7.131-8.4A23.448,23.448,0,0,1,9.172,17.575Zm13.55,0a23.9,23.9,0,0,1,4.063.35,10.958,10.958,0,0,1-7.132,8.4V23.617a4.886,4.886,0,0,0-.744-2.5,3.888,3.888,0,0,0-.5-.645,7.018,7.018,0,0,0,2.972-1.263A4.694,4.694,0,0,0,22.721,17.579Zm-7.4,3.168h1.461a1.641,1.641,0,0,1,1.239.921,4.036,4.036,0,0,1,.587,1.948v3.025a11,11,0,0,1-5.217,0V23.617a3.878,3.878,0,0,1,.631-1.936A1.774,1.774,0,0,1,15.321,20.748Zm-5.943.617a2.455,2.455,0,0,0,1.822.9c.407,0,.914.014,1.4-.029H12.6a4.711,4.711,0,0,0-.151.551H10.992a1.346,1.346,0,0,1-1.307-.651l0-.007,0-.006A7.261,7.261,0,0,1,9.378,21.364Zm0,0" data-name="Caminho 3"/></g></svg>