<svg xmlns="http://www.w3.org/2000/svg" width="24" height="24" viewBox="0 0 24 24">
  <g id="instagram" transform="translate(-6 -6)">
    <path id="Caminho_2" data-name="Caminho 2" d="M13.091,6A7.1,7.1,0,0,0,6,13.091v9.818A7.1,7.1,0,0,0,13.091,30h9.818A7.1,7.1,0,0,0,30,22.909V13.091A7.1,7.1,0,0,0,22.909,6Zm0,1.091h9.818a5.992,5.992,0,0,1,6,6v9.818a5.992,5.992,0,0,1-6,6H13.091a5.992,5.992,0,0,1-6-6V13.091A5.992,5.992,0,0,1,13.091,7.091Zm11.455,3.273a1.091,1.091,0,1,0,1.091,1.091A1.09,1.09,0,0,0,24.545,10.364ZM18,12a6,6,0,1,0,6,6A6.009,6.009,0,0,0,18,12Zm0,1.091A4.909,4.909,0,1,1,13.091,18,4.9,4.9,0,0,1,18,13.091Zm0,0" fill="#9ca4b1"/>
  </g>
</svg>
