<svg xmlns="http://www.w3.org/2000/svg" width="24" height="24" viewBox="0 0 24 24"><g id="linkedin" transform="translate(-8 -8)"><path id="Caminho_4" fill="#9ca4b1" d="M10.857,8A2.866,2.866,0,0,0,8,10.857V29.143A2.866,2.866,0,0,0,10.857,32H29.143A2.866,2.866,0,0,0,32,29.143V10.857A2.866,2.866,0,0,0,29.143,8Zm0,1.143H29.143a1.706,1.706,0,0,1,1.714,1.714V29.143a1.706,1.706,0,0,1-1.714,1.714H10.857a1.706,1.706,0,0,1-1.714-1.714V10.857A1.706,1.706,0,0,1,10.857,9.143Zm2.857,2.864a2.47,2.47,0,0,0-1.606.538,1.882,1.882,0,0,0-.673,1.436,2.108,2.108,0,0,0,2.1,1.981h0a.576.576,0,0,0,.174.03,2.139,2.139,0,0,0,2.279-2.012.272.272,0,0,0,0-.03A2.164,2.164,0,0,0,13.714,12.007Zm0,1.129c.8,0,1.109.355,1.144.859-.007.489-.309.868-1.144.868-.791,0-1.15-.405-1.15-.883a.7.7,0,0,1,.27-.573A1.349,1.349,0,0,1,13.714,13.136ZM12,16.571a.571.571,0,0,0-.571.571V28a.571.571,0,0,0,.571.571h3.429A.571.571,0,0,0,16,28V17.143a.571.571,0,0,0-.571-.571Zm5.143,0a.571.571,0,0,0-.571.571V28a.571.571,0,0,0,.571.571h3.429A.571.571,0,0,0,21.143,28V22.286a2.189,2.189,0,0,1,.357-1.254,1.144,1.144,0,0,1,1.061-.484,1.238,1.238,0,0,1,1.087.506A2.114,2.114,0,0,1,24,22.286V28a.571.571,0,0,0,.571.571H28A.571.571,0,0,0,28.571,28V21.864a5.586,5.586,0,0,0-1.36-3.94,4.5,4.5,0,0,0-3.318-1.353,4.99,4.99,0,0,0-2.75.814v-.242a.571.571,0,0,0-.571-.571Zm-4.571,1.143h2.286v9.714H12.571Zm5.143,0H20v.892a.572.572,0,0,0,1.028.344,3.589,3.589,0,0,1,2.865-1.235,3.312,3.312,0,0,1,2.489,1,4.425,4.425,0,0,1,1.047,3.154v5.565H25.143V22.286a3.183,3.183,0,0,0-.577-1.916,2.486,2.486,0,0,0-1.984-.965,2.4,2.4,0,0,0-2,.95A3.234,3.234,0,0,0,20,22.286v5.143H17.714Zm0,0" data-name="Caminho 4"/></g></svg>